<svg xmlns="http://www.w3.org/2000/svg" viewBox="0 0 24 24" fill="white">
  <path d="M12 2.2c3.2 0 3.6 0 4.9.1 1.2.1 1.9.3 2.3.5.6.2 1 .5 1.5 1 .4.4.8.9 1 1.5.2.5.4 1.1.5 2.3.1 1.3.1 1.7.1 4.9s0 3.6-.1 4.9c-.1 1.2-.3 1.9-.5 2.3-.2.6-.5 1-1 1.5-.4.4-.9.8-1.5 1-.5.2-1.1.4-2.3.5-1.3.1-1.7.1-4.9.1s-3.6 0-4.9-.1c-1.2-.1-1.9-.3-2.3-.5-.6-.2-1-.5-1.5-1-.4-.4-.8-.9-1-1.5-.2-.5-.4-1.1-.5-2.3C2.2 15.6 2.2 15.2 2.2 12s0-3.6.1-4.9c.1-1.2.3-1.9.5-2.3.2-.6.5-1 1-1.5.4-.4.9-.8 1.5-1 .5-.2 1.1-.4 2.3-.5C8.4 2.2 8.8 2.2 12 2.2zM12 5.8a6.2 6.2 0 1 0 0 12.4 6.2 6.2 0 0 0 0-12.4zm0 10.2a4 4 0 1 1 0-8 4 4 0 0 1 0 8zm6.4-10.9a1.4 1.4 0 1 1-2.8 0 1.4 1.4 0 0 1 2.8 0z"></path>
</svg>
