<svg xmlns="http://www.w3.org/2000/svg" viewBox="0 0 24 24" fill="white">
  <path d="M20.5 3.5A11 11 0 0 0 3.3 17.8L2 22l4.3-1.3A11 11 0 1 0 20.5 3.5zm-8.5 17a9 9 0 0 1-4.6-1.3l-.3-.2-2.6.8.8-2.5-.2-.3A9 9 0 1 1 12 20.5zm5-6.7c-.3-.1-1.8-.9-2-.9s-.5-.1-.7.1-.8.9-1 .9-.4 0-.7-.1a7.4 7.4 0 0 1-2.2-1.4 8.3 8.3 0 0 1-1.6-2c-.2-.3 0-.5.1-.6l.4-.5c.1-.1.1-.3.2-.5s0-.4 0-.5c0-.1-.7-1.7-1-2.3-.3-.6-.5-.5-.7-.5h-.6c-.2 0-.5.1-.7.3-.3.3-.9.8-.9 2s.9 2.4 1 2.6a11 11 0 0 0 4.2 4.1c.5.2.9.4 1.2.5.5.2 1 .2 1.4.1.4-.1 1.8-.7 2-1.4.3-.7.3-1.3.2-1.4-.1-.1-.3-.2-.6-.3z"></path>
</svg>
